HIERARCHY
ROOT Hips
{
    OFFSET   0.000000   0.000000   0.000000
    CHANNELS 6 Xposition Yposition Zposition Zrotation Xrotation Yrotation
    JOINT Chest
    {
        OFFSET   0.000000   8.007230   0.000000
        CHANNELS 3 Zrotation Xrotation Yrotation
        JOINT Chest2
        {
            OFFSET   0.000000  22.077100   0.000000
            CHANNELS 3 Zrotation Xrotation Yrotation
            JOINT Neck
            {
                OFFSET   0.000000  23.254800  -0.000021
                CHANNELS 3 Zrotation Xrotation Yrotation
                JOINT Head
                {
                    OFFSET   0.000000  14.370000   1.956610
                    CHANNELS 3 Zrotation Xrotation Yrotation
                    End Site
                    {
                        OFFSET   0.000000  19.566000   0.000000
                    }
                }
            }
            JOINT LeftCollar
            {
                OFFSET   3.911900  19.017000  -0.467063
                CHANNELS 3 Zrotation Xrotation Yrotation
                JOINT LeftShoulder
                {
                    OFFSET  10.383700   0.000000   0.000000
                    CHANNELS 3 Zrotation Xrotation Yrotation
                    JOINT LeftElbow
                    {
                        OFFSET  26.662100   0.001529   0.000325
                        CHANNELS 3 Zrotation Xrotation Yrotation
                        JOINT LeftWrist
                        {
                            OFFSET  28.869000  -0.000011  -0.000096
                            CHANNELS 3 Zrotation Xrotation Yrotation
                            JOINT LeftFinger0
                            {
                                OFFSET   2.044650  -2.323460   3.252850
                                CHANNELS 3 Zrotation Xrotation Yrotation
                                JOINT LeftFinger01
                                {
                                    OFFSET   3.088130   0.000000   0.000000
                                    CHANNELS 3 Zrotation Xrotation Yrotation
                                    JOINT LeftFinger02
                                    {
                                        OFFSET   2.639460   0.000000   0.000000
                                        CHANNELS 3 Zrotation Xrotation Yrotation
                                        End Site
                                        {
                                            OFFSET   2.582190   0.000000   0.000000
                                        }
                                    }
                                }
                            }
                            JOINT LeftFinger1
                            {
                                OFFSET   8.364480   0.000000   3.252850
                                CHANNELS 3 Zrotation Xrotation Yrotation
                                JOINT LeftFinger11
                                {
                                    OFFSET   4.646930   0.000000   0.000000
                                    CHANNELS 3 Zrotation Xrotation Yrotation
                                    JOINT LeftFinger12
                                    {
                                        OFFSET   2.323460   0.000000   0.000000
                                        CHANNELS 3 Zrotation Xrotation Yrotation
                                        End Site
                                        {
                                            OFFSET   2.273050   0.000000   0.000000
                                        }
                                    }
                                }
                            }
                            JOINT LeftFinger2
                            {
                                OFFSET   8.364480   0.000016   1.078090
                                CHANNELS 3 Zrotation Xrotation Yrotation
                                JOINT LeftFinger21
                                {
                                    OFFSET   5.111620   0.000000   0.000000
                                    CHANNELS 3 Zrotation Xrotation Yrotation
                                    JOINT LeftFinger22
                                    {
                                        OFFSET   2.788160   0.000017   0.000000
                                        CHANNELS 3 Zrotation Xrotation Yrotation
                                        End Site
                                        {
                                            OFFSET   2.727660   0.000000   0.000000
                                        }
                                    }
                                }
                            }
                            JOINT LeftFinger3
                            {
                                OFFSET   7.899780   0.000015  -1.078090
                                CHANNELS 3 Zrotation Xrotation Yrotation
                                JOINT LeftFinger31
                                {
                                    OFFSET   4.646920   0.000000   0.000000
                                    CHANNELS 3 Zrotation Xrotation Yrotation
                                    JOINT LeftFinger32
                                    {
                                        OFFSET   2.323470   0.000000   0.000000
                                        CHANNELS 3 Zrotation Xrotation Yrotation
                                        End Site
                                        {
                                            OFFSET   2.273050   0.000000   0.000000
                                        }
                                    }
                                }
                            }
                            JOINT LeftFinger4
                            {
                                OFFSET   7.435090   0.000000  -3.252850
                                CHANNELS 3 Zrotation Xrotation Yrotation
                                JOINT LeftFinger41
                                {
                                    OFFSET   3.717550   0.000000   0.000000
                                    CHANNELS 3 Zrotation Xrotation Yrotation
                                    JOINT LeftFinger42
                                    {
                                        OFFSET   1.858760   0.000000   0.000000
                                        CHANNELS 3 Zrotation Xrotation Yrotation
                                        End Site
                                        {
                                            OFFSET   1.818440   0.000000   0.000000
                                        }
                                    }
                                }
                            }
                        }
                    }
                }
            }
            JOINT RightCollar
            {
                OFFSET  -3.911900  19.017000  -0.467062
                CHANNELS 3 Zrotation Xrotation Yrotation
                JOINT RightShoulder
                {
                    OFFSET -10.383700   0.000015   0.000000
                    CHANNELS 3 Zrotation Xrotation Yrotation
                    JOINT RightElbow
                    {
                        OFFSET -26.662100   0.001341   0.000385
                        CHANNELS 3 Zrotation Xrotation Yrotation
                        JOINT RightWrist
                        {
                            OFFSET -28.869000   0.000025  -0.000080
                            CHANNELS 3 Zrotation Xrotation Yrotation
                            JOINT RightFinger0
                            {
                                OFFSET  -2.044650  -2.323490   3.252850
                                CHANNELS 3 Zrotation Xrotation Yrotation
                                JOINT RightFinger01
                                {
                                    OFFSET  -3.088130   0.000000   0.000000
                                    CHANNELS 3 Zrotation Xrotation Yrotation
                                    JOINT RightFinger02
                                    {
                                        OFFSET  -2.639460   0.000000   0.000000
                                        CHANNELS 3 Zrotation Xrotation Yrotation
                                        End Site
                                        {
                                            OFFSET  -2.582190   0.000000   0.000000
                                        }
                                    }
                                }
                            }
                            JOINT RightFinger1
                            {
                                OFFSET  -8.364480   0.000000   3.252850
                                CHANNELS 3 Zrotation Xrotation Yrotation
                                JOINT RightFinger11
                                {
                                    OFFSET  -4.646930   0.000000   0.000000
                                    CHANNELS 3 Zrotation Xrotation Yrotation
                                    JOINT RightFinger12
                                    {
                                        OFFSET  -2.323470   0.000000   0.000000
                                        CHANNELS 3 Zrotation Xrotation Yrotation
                                        End Site
                                        {
                                            OFFSET  -2.273050   0.000000   0.000000
                                        }
                                    }
                                }
                            }
                            JOINT RightFinger2
                            {
                                OFFSET  -8.364480   0.000000   1.078090
                                CHANNELS 3 Zrotation Xrotation Yrotation
                                JOINT RightFinger21
                                {
                                    OFFSET  -5.111610   0.000000   0.000000
                                    CHANNELS 3 Zrotation Xrotation Yrotation
                                    JOINT RightFinger22
                                    {
                                        OFFSET  -2.788160   0.000000   0.000000
                                        CHANNELS 3 Zrotation Xrotation Yrotation
                                        End Site
                                        {
                                            OFFSET  -2.727660   0.000000   0.000000
                                        }
                                    }
                                }
                            }
                            JOINT RightFinger3
                            {
                                OFFSET  -7.899780   0.000000  -1.078090
                                CHANNELS 3 Zrotation Xrotation Yrotation
                                JOINT RightFinger31
                                {
                                    OFFSET  -4.646920   0.000000   0.000000
                                    CHANNELS 3 Zrotation Xrotation Yrotation
                                    JOINT RightFinger32
                                    {
                                        OFFSET  -2.323470   0.000000   0.000000
                                        CHANNELS 3 Zrotation Xrotation Yrotation
                                        End Site
                                        {
                                            OFFSET  -2.273050   0.000000   0.000000
                                        }
                                    }
                                }
                            }
                            JOINT RightFinger4
                            {
                                OFFSET  -7.435090   0.000000  -3.252850
                                CHANNELS 3 Zrotation Xrotation Yrotation
                                JOINT RightFinger41
                                {
                                    OFFSET  -3.717550   0.000000   0.000000
                                    CHANNELS 3 Zrotation Xrotation Yrotation
                                    JOINT RightFinger42
                                    {
                                        OFFSET  -1.858770   0.000000   0.000000
                                        CHANNELS 3 Zrotation Xrotation Yrotation
                                        End Site
                                        {
                                            OFFSET  -1.818440   0.000000   0.000000
                                        }
                                    }
                                }
                            }
                        }
                    }
                }
            }
        }
    }
    JOINT LeftHip
    {
        OFFSET   9.783010   0.000000   0.000000
        CHANNELS 3 Zrotation Xrotation Yrotation
        JOINT LeftKnee
        {
            OFFSET   0.000070 -41.789100   0.000028
            CHANNELS 3 Zrotation Xrotation Yrotation
            JOINT LeftAnkle
            {
                OFFSET   0.000087 -41.133200  -0.000100
                CHANNELS 3 Zrotation Xrotation Yrotation
                JOINT LeftToe
                {
                    OFFSET   0.000000  -6.358960  14.674500
                    CHANNELS 3 Zrotation Xrotation Yrotation
                    End Site
                    {
                        OFFSET   0.000000   0.000000   3.913200
                    }
                }
            }
        }
    }
    JOINT RightHip
    {
        OFFSET  -9.783020   0.000000   0.000000
        CHANNELS 3 Zrotation Xrotation Yrotation
        JOINT RightKnee
        {
            OFFSET   0.000044 -41.789100  -0.000870
            CHANNELS 3 Zrotation Xrotation Yrotation
            JOINT RightAnkle
            {
                OFFSET  -0.000090 -41.133200  -0.000245
                CHANNELS 3 Zrotation Xrotation Yrotation
                JOINT RightToe
                {
                    OFFSET   0.000000  -6.358960  14.674500
                    CHANNELS 3 Zrotation Xrotation Yrotation
                    End Site
                    {
                        OFFSET   0.000000   0.000000   3.913200
                    }
                }
            }
        }
    }
}
MOTION
Frames: 4
Frame Time:   0.016667
 -0.968572  89.989500   0.822488  -1.527150 -10.445700  -5.351950  -0.961036   5.630190  -0.657562  -1.870400  11.270300  -1.228590   3.584980   2.256150  -0.140935   5.913440   4.521910 -17.617900  -4.039500   2.494400   5.501610 -63.002100 -13.224500 -47.847800   7.318780 -18.960000 -72.002000  -2.401990 -18.814000   7.358860  42.117700  20.915900 -54.373500  -6.162160   0.002157   0.000279   1.918940   0.001115   0.000383  -8.921790  -0.009083   0.059767  -7.299540   0.008954  -0.003495  -5.109680   0.005614  -0.001605 -21.784300  -3.977520   9.856710 -22.122000   0.002808   0.000249 -14.733200   0.004887   0.002080 -13.677600  -2.543390  10.319100 -13.905800   0.006247   0.001138  -9.261250   0.004919   0.000665 -16.620300  -4.229060  13.875800 -25.715700   0.002141   0.002161 -17.126700   0.003478   0.003633   6.040140   2.352810   6.844140  52.069800 -31.011300  38.770500 -18.534000 -23.828800  61.039200  -1.485760 -13.694600  10.454700 -44.699500  23.065100  53.141600 -20.574500   0.005240   0.002062 -15.002600   0.001895  -0.007201  13.094100  -2.057890  -8.782730  10.843400   0.001360  -0.003437   7.590440   0.006610  -0.007218  12.011000  -2.155020 -10.029900  12.201000   0.007238   0.001072   8.125860   0.008522  -0.005136  13.121400  -3.048810 -12.854700  13.464700   0.001175  -0.001250   8.967530   0.010563  -0.001296  17.623900  -5.590540 -17.055100  27.696500  -0.000445  -0.001440  18.445900  -0.000403  -0.002064   0.512333  12.093900   2.901850   0.290660   2.467320  10.995700  -4.966500  -5.300380   5.043290  -0.000000   0.000000   0.000000   3.203950  12.065300  -8.945350   0.372609   2.274690  -5.363120 -12.053300  -0.599614   3.126540  -0.000000   0.000000   0.000000
 -0.964636  89.989600   0.834160  -1.556330 -10.411700  -5.478600  -0.946903   5.613910  -0.669204  -1.840880  11.237900  -1.253690   3.568020   2.230810  -0.139279   5.887260   4.471130 -17.616700  -4.131360   2.480440   5.389370 -63.848600 -13.386700 -47.660600   7.322900 -19.173800 -72.027100  -2.418570 -19.501300   7.321770  42.068200  20.851000 -54.388600  -6.413250   0.002150   0.000289   1.793400   0.001095   0.000375  -9.137160  -0.004674   0.031329  -7.475570   0.008960  -0.003416  -5.232910   0.005590  -0.001665 -21.929400  -3.977440   9.776110 -22.269500   0.002808   0.000209 -14.831500   0.004868   0.002055 -13.847600  -2.551340  10.237200 -14.075900   0.006257   0.001077  -9.374600   0.004877   0.000577 -16.743000  -4.370150  14.215400 -25.935200   0.002103   0.002112 -17.272900   0.003425   0.003593   6.115930   2.383670   6.773410  52.406000 -31.124300  38.621800 -18.433600 -23.966500  60.755700  -1.483310 -14.395000  10.819100 -44.672100  23.161600  53.340800 -20.142700   0.005149   0.002010 -14.977200   0.001869  -0.007116  13.189800  -2.136620  -9.046080  10.930400   0.001467  -0.003371   7.651280   0.006589  -0.007216  12.112600  -2.224910 -10.261000  12.312900   0.007272   0.001143   8.200370   0.008497  -0.005099  13.241200  -3.072020 -12.832300  13.586600   0.001164  -0.001257   9.048690   0.010580  -0.001335  17.733100  -5.756090 -17.421300  27.925300  -0.000454  -0.001419  18.598300  -0.000403  -0.002071   0.517227  12.102200   2.926190   0.276273   2.448130  11.053700  -4.949210  -5.328450   5.085570  -0.000000   0.000000   0.000000   3.206890  12.046800  -8.906820   0.371308   2.268220  -5.344960 -12.052000  -0.612876   3.194520   0.000000   0.000000   0.000000
 -0.956801  89.991600   0.848667  -1.591190 -10.382500  -5.629060  -0.931487   5.588000  -0.685628  -1.808190  11.186100  -1.289000   3.548890   2.217160  -0.137722   5.863460   4.443870 -17.533100  -4.231580   2.485490   5.313390 -64.586500 -13.463400 -47.482800   7.309770 -19.420900 -72.007900  -2.544880 -20.010700   7.259930  42.093900  20.905300 -54.454200  -6.627130   0.002113   0.000361   1.686450   0.001088   0.000377  -9.235270   0.003513  -0.019785  -7.555990   0.008948  -0.003346  -5.289190   0.005568  -0.001730 -21.986200  -3.980530   9.757580 -22.325900   0.002819   0.000179 -14.869100   0.004852   0.002020 -13.918700  -2.560220  10.218900 -14.147400   0.006273   0.001009  -9.422240   0.004839   0.000484 -16.757300  -4.444940  14.437100 -25.974300   0.002040   0.002062 -17.298900   0.003387   0.003546   6.177770   2.435720   6.738300  52.671900 -31.154300  38.452200 -18.336300 -23.999800  60.457300  -1.575910 -14.926600  11.086700 -44.664700  23.259500  53.514900 -19.742800   0.005051   0.001918 -14.866700   0.001838  -0.007036  13.267400  -2.192360  -9.222540  11.000200   0.001572  -0.003305   7.700130   0.006581  -0.007225  12.202200  -2.275260 -10.409900  12.409800   0.007310   0.001220   8.264910   0.008469  -0.005074  13.347200  -3.092490 -12.812700  13.694300   0.001141  -0.001259   9.120430   0.010600  -0.001364  17.827300  -5.881510 -17.682100  28.115500  -0.000463  -0.001380  18.725000  -0.000394  -0.002076   0.516451  12.074100   2.954470   0.267137   2.473770  11.127800  -4.932060  -5.358660   5.131980   0.000000   0.000000   0.000000   3.205350  12.031400  -8.860690   0.369891   2.265600  -5.331270 -12.047600  -0.624997   3.284180  -0.000000   0.000000  -0.000000
 -0.947404  89.994800   0.863091  -1.631340 -10.358500  -5.800780  -0.918250   5.562400  -0.695111  -1.780970  11.134900  -1.309420   3.537150   2.203440  -0.136141   5.835330   4.417210 -17.341300  -4.328490   2.490460   5.254470 -65.249600 -13.511200 -47.307700   7.316360 -19.616300 -71.931900  -2.696520 -20.393800   7.193820  42.120500  21.032700 -54.587500  -6.735890   0.002070   0.000424   1.632060   0.001083   0.000379  -9.313550   0.010672  -0.061897  -7.620220   0.008937  -0.003275  -5.334150   0.005546  -0.001797 -22.042400  -3.987920   9.747550 -22.382400   0.002835   0.000141 -14.906700   0.004835   0.001992 -13.978200  -2.569030  10.209500 -14.207400   0.006286   0.000938  -9.462180   0.004804   0.000389 -16.761500  -4.494210  14.585100 -26.006600   0.001981   0.002011 -17.320400   0.003351   0.003498   6.242300   2.470340   6.711770  52.894400 -31.104700  38.274600 -18.251800 -23.981200  60.157600  -1.722460 -15.368800  11.279100 -44.672100  23.308700  53.633900 -19.365100   0.004953   0.001827 -14.698200   0.001806  -0.006957  13.349900  -2.240030  -9.358550  11.072900   0.001672  -0.003240   7.751030   0.006574  -0.007234  12.295500  -2.317600 -10.516400  12.509000   0.007353   0.001296   8.330970   0.008444  -0.005049  13.451300  -3.112610 -12.793400  13.800200   0.001125  -0.001264   9.190920   0.010620  -0.001390  17.927400  -5.991780 -17.888700  28.307500  -0.000469  -0.001342  18.852800  -0.000384  -0.002082   0.513553  12.046000   2.982570   0.254953   2.511240  11.215900  -4.912660  -5.391440   5.186040  -0.000000   0.000000   0.000000   3.201650  12.017100  -8.815320   0.364766   2.265180  -5.313680 -12.039900  -0.637707   3.391710  -0.000000   0.000000   0.000000
